<?xml version="1.0" encoding="utf-8"?>
<!-- Generator: Adobe Illustrator 22.0.1, SVG Export Plug-In . SVG Version: 6.00 Build 0)  -->
<svg version="1.1" id="Layer_1" xmlns="http://www.w3.org/2000/svg" xmlns:xlink="http://www.w3.org/1999/xlink" x="0px" y="0px"
	 viewBox="0 0 21 21" style="enable-background:new 0 0 21 21;" xml:space="preserve">
<g id="Group_654" transform="translate(-709 3234)">
	<path id="Path_2178" d="M719.5-3232c-4.7,0-8.5,3.8-8.5,8.5s3.8,8.5,8.5,8.5s8.5-3.8,8.5-8.5S724.2-3232,719.5-3232z
		 M725.8-3225.9l-2.4,1c-0.4-1.2-1.3-2.1-2.5-2.5l1-2.4C723.7-3229.1,725.2-3227.7,725.8-3225.9z M719.5-3220.9
		c-1.4,0-2.5-1.1-2.5-2.6c0-1.4,1.1-2.6,2.5-2.6s2.5,1.1,2.5,2.6C722.1-3222.1,720.9-3221,719.5-3220.9
		C719.5-3220.9,719.5-3220.9,719.5-3220.9L719.5-3220.9z M717.1-3229.8l1,2.4c-1.2,0.4-2.1,1.4-2.5,2.5l-2.4-1
		C713.8-3227.7,715.3-3229.2,717.1-3229.8z M713.2-3221.1l2.4-1c0.4,1.2,1.4,2.1,2.5,2.5l-1,2.4
		C715.3-3217.9,713.8-3219.3,713.2-3221.1L713.2-3221.1z M722-3217.2l-1-2.4c1.2-0.4,2.1-1.4,2.5-2.5l2.4,1
		C725.2-3219.3,723.7-3217.9,722-3217.2L722-3217.2z" fill="#000"/>
</g>
</svg>
