<svg xmlns="http://www.w3.org/2000/svg" width="14.862" height="17.835" viewBox="0 0 14.862 17.835">
  <g id="bell" transform="translate(-2)">
    <path id="Path_6" data-name="Path 6" d="M16.4,12.568A4.977,4.977,0,0,1,14.633,8.76V6.688a5.206,5.206,0,0,0-4.459-5.142v-.8a.743.743,0,1,0-1.486,0v.8A5.205,5.205,0,0,0,4.229,6.688V8.76a4.983,4.983,0,0,1-1.775,3.814A1.3,1.3,0,0,0,3.3,14.862H15.562a1.3,1.3,0,0,0,.839-2.294Z" fill="#000000"/>
    <path id="Path_7" data-name="Path 7" d="M11.056,23.229A2.791,2.791,0,0,0,13.786,21H8.326A2.791,2.791,0,0,0,11.056,23.229Z" transform="translate(-1.625 -5.394)" fill="#000000"/>
  </g>
</svg>
