<svg xmlns="http://www.w3.org/2000/svg" width="24.143" height="19.98" viewBox="0 0 24.143 19.98">
  <g id="cms" transform="translate(0 0)">
    <path id="Path_1" data-name="Path 1" d="M23.671,9.571H22.115v-1.4a.472.472,0,0,0-.472-.472H20.571a8.744,8.744,0,0,0-.834-2.011l.759-.759a.472.472,0,0,0,0-.667L17.851,1.619a.472.472,0,0,0-.667,0l-.759.759a8.742,8.742,0,0,0-2.011-.834V.471A.472.472,0,0,0,13.942,0H10.2A.472.472,0,0,0,9.73.471V1.544a8.74,8.74,0,0,0-2.011.834l-.759-.759a.472.472,0,0,0-.667,0L3.647,4.264a.471.471,0,0,0,0,.667l.759.759A8.739,8.739,0,0,0,3.572,7.7H2.5a.472.472,0,0,0-.472.472v1.4H.472a.472.472,0,1,0,0,.943h9.714a.472.472,0,0,0,0-.943H8.152a3.948,3.948,0,0,1,7.839,0H13.958a.472.472,0,0,0,0,.943h9.714a.472.472,0,1,0,0-.943Z" transform="translate(0)" fill-rule="evenodd" fill="#000000"/>
    <path id="Path_2" data-name="Path 2" d="M61.181,260.814h.995a1.013,1.013,0,0,1,1.012,1.012.472.472,0,0,0,.943,0,1.957,1.957,0,0,0-1.955-1.955h-.995a1.957,1.957,0,0,0-1.955,1.955v3.608a1.957,1.957,0,0,0,1.955,1.955h.995a1.957,1.957,0,0,0,1.955-1.955.472.472,0,1,0-.943,0,1.013,1.013,0,0,1-1.012,1.012h-.995a1.013,1.013,0,0,1-1.012-1.012v-3.608A1.013,1.013,0,0,1,61.181,260.814Zm0,0" transform="translate(-56.433 -247.617)" fill-rule="evenodd" fill="#000000"/>
    <path id="Path_3" data-name="Path 3" d="M197.161,261.564a.471.471,0,0,0-.53.225l-2.454,4.374-2.454-4.374a.472.472,0,0,0-.883.231v6.417a.472.472,0,1,0,.943,0v-4.613l1.982,3.534a.472.472,0,0,0,.822,0l1.982-3.534v4.613a.472.472,0,1,0,.943,0V262.02A.471.471,0,0,0,197.161,261.564Zm0,0" transform="translate(-181.841 -249.215)" fill-rule="evenodd" fill="#000000"/>
    <path id="Path_4" data-name="Path 4" d="M360.868,258.961a1.276,1.276,0,1,1,1.04-2.017.471.471,0,1,0,.767-.548,2.219,2.219,0,1,0-1.807,3.508,1.276,1.276,0,1,1-1.131,1.868.471.471,0,1,0-.835.439,2.219,2.219,0,1,0,1.966-3.25Zm0,0" transform="translate(-341.737 -243.419)" fill-rule="evenodd" fill="#000000"/>
    <path id="Path_5" data-name="Path 5" d="M246.943,203.46a.472.472,0,1,0-.472.472A.473.473,0,0,0,246.943,203.46Zm0,0" transform="translate(-234.4 -193.417)" fill-rule="evenodd" fill="#000000"/>
  </g>
</svg>
